Coordinates
version=1
nRows=18
nColumns=22
inDegrees=yes

Units are S.I. units (second, meters, Newtons, ...)
If the header above contains a line with 'inDegrees', this indicates whether rotational values are in degrees (yes) or radians (no).

endheader
time	pelvis_tilt	pelvis_list	pelvis_rotation	pelvis_tx	pelvis_ty	pelvis_tz	hip_flexion_r	hip_adduction_r	hip_rotation_r	knee_angle_r	ankle_angle_r	subtalar_angle_r	hip_flexion_l	hip_adduction_l	hip_rotation_l	knee_angle_l	ankle_angle_l	subtalar_angle_l	lumbar_extension	lumbar_bending	lumbar_rotation
      0.01000000	      4.17439089	     -3.10222352	      5.70747059	     -1.35863331	      0.95317648	     -0.65733989	     -5.57603198	      5.09965040	    -12.26493885	     -6.67418167	      9.16644881	     -1.56241585	     -0.49888967	     -4.72221003	    -12.98353808	    -16.18761038	     20.64425646	     -8.21027868	    -10.75687966	      4.10897409	     -9.03567388
      0.02000000	      4.19136259	     -3.11639880	      5.70751656	     -1.35859629	      0.95319900	     -0.65740572	     -5.62654444	      5.11912622	    -12.25298127	     -6.61152302	      9.19276736	     -1.58303237	     -0.52211573	     -4.73290171	    -12.95676995	    -16.18388235	     20.62057537	     -8.23088249	    -10.77660404	      4.11508428	     -9.02134837
      0.03000000	      4.18893705	     -3.12236780	      5.69337420	     -1.35859928	      0.95319469	     -0.65746396	     -5.62593754	      5.11904427	    -12.25401314	     -6.60640311	      9.19127364	     -1.58455417	     -0.52329568	     -4.73290171	    -12.95660191	    -16.18235223	     20.62214257	     -8.23176176	    -10.78366763	      4.10747900	     -9.02468285
      0.04000000	      4.18488912	     -3.12832986	      5.67672083	     -1.35859922	      0.95318669	     -0.65752982	     -5.62556732	      5.11813027	    -12.25586767	     -6.59685500	      9.18948857	     -1.58619491	     -0.52463418	     -4.73192817	    -12.95850439	    -16.17968275	     20.62463118	     -8.23251167	    -10.78930488	      4.09865823	     -9.02397025
      0.05000000	      4.18660392	     -3.11785446	      5.61920988	     -1.35854194	      0.95320157	     -0.65755189	     -5.64754388	      5.09822570	    -12.18931146	     -6.56397501	      9.15340009	     -1.61639521	     -0.56557499	     -4.71047377	    -13.02530988	    -16.13674963	     20.64624092	     -8.24324601	    -10.79548479	      4.06423463	     -8.96140152
      0.06000000	      4.18129754	     -3.12560098	      5.60453168	     -1.35855815	      0.95319087	     -0.65762792	     -5.64466192	      5.09855797	    -12.19353156	     -6.55395335	      9.15422763	     -1.61710655	     -0.56410592	     -4.71149130	    -13.02618928	    -16.13374756	     20.64593941	     -8.24315513	    -10.80247172	      4.05817105	     -8.96184463
      0.07000000	      4.16366406	     -3.12970612	      5.57585700	     -1.35851339	      0.95316855	     -0.65768991	     -5.64256493	      5.09472798	    -12.19704293	     -6.52276809	      9.15020699	     -1.62385483	     -0.56853044	     -4.70555358	    -13.06224432	    -16.10448813	     20.64675120	     -8.24006403	    -10.78186111	      4.04407768	     -8.93397893
      0.08000000	      4.15848721	     -3.13649450	      5.55597999	     -1.35852551	      0.95315629	     -0.65776271	     -5.63804270	      5.09280397	    -12.19843712	     -6.51657534	      9.14930820	     -1.62465354	     -0.56812220	     -4.70461968	    -13.06439763	    -16.10246896	     20.64680596	     -8.23911457	    -10.78618213	      4.03938467	     -8.93562776
      0.09000000	      4.12500230	     -3.13296557	      5.48915996	     -1.35849255	      0.95311760	     -0.65776873	     -5.59886095	      5.07194541	    -12.14296403	     -6.52433591	      9.12808525	     -1.63896503	     -0.56451307	     -4.68850465	    -13.14628722	    -16.06718693	     20.64020478	     -8.22060481	    -10.75014758	      4.01240551	     -8.87678443
      0.10000000	      4.12029315	     -3.14043475	      5.47093524	     -1.35849519	      0.95310600	     -0.65783935	     -5.59585483	      5.07135551	    -12.14597322	     -6.51742402	      9.12889486	     -1.63936579	     -0.56377291	     -4.68869480	    -13.14820586	    -16.06545582	     20.63991408	     -8.21976450	    -10.75181916	      4.01028122	     -8.88061880
      0.11000000	      4.09898069	     -3.14950584	      5.43841543	     -1.35843462	      0.95307672	     -0.65790258	     -5.58123598	      5.06935101	    -12.13918382	     -6.50550270	      9.12683199	     -1.64203965	     -0.56421422	     -4.68781893	    -13.19433966	    -16.03601686	     20.63953238	     -8.21593700	    -10.71842103	      4.01151686	     -8.88047231
      0.12000000	      4.09443340	     -3.15597864	      5.41908827	     -1.35844428	      0.95306730	     -0.65796214	     -5.57590396	      5.06836671	    -12.13800389	     -6.50205972	      9.12609649	     -1.64232593	     -0.56164386	     -4.68708606	    -13.19681998	    -16.03689727	     20.63931954	     -8.21519635	    -10.72147895	      4.00735689	     -8.88301625
      0.13000000	      4.04963621	     -3.16095273	      5.35653952	     -1.35844481	      0.95300444	     -0.65796661	     -5.51740950	      5.05569097	    -12.05847444	     -6.51954480	      9.11285281	     -1.64529986	     -0.52098185	     -4.68496303	    -13.28823049	    -16.04133574	     20.63534196	     -8.20888236	    -10.67292153	      3.99542501	     -8.84152533
      0.14000000	      4.04656384	     -3.16750224	      5.34039527	     -1.35846317	      0.95299884	     -0.65804098	     -5.51393726	      5.05408144	    -12.05934364	     -6.51592518	      9.11332091	     -1.64522982	     -0.51883394	     -4.68355165	    -13.28907978	    -16.04152397	     20.63564219	     -8.20860334	    -10.67614314	      3.99680828	     -8.84895107
      0.15000000	      4.03452426	     -3.17424322	      5.31986185	     -1.35847550	      0.95298148	     -0.65811721	     -5.49592319	      5.05017136	    -12.03627697	     -6.52428670	      9.11202978	     -1.64313573	     -0.50999566	     -4.68254149	    -13.31848035	    -16.03741189	     20.63746460	     -8.20990899	    -10.66399069	      4.00203667	     -8.88160267
      0.16000000	      4.03166121	     -3.17950071	      5.30531194	     -1.35849972	      0.95297800	     -0.65818718	     -5.49238773	      5.04788066	    -12.03561762	     -6.52046657	      9.11222936	     -1.64259551	     -0.50663829	     -4.68078604	    -13.31878527	    -16.04028611	     20.63755456	     -8.20991902	    -10.66680746	      4.00123376	     -8.88587107
      0.17000000	      4.01699621	     -3.18068355	      5.28792711	     -1.35852562	      0.95295575	     -0.65825997	     -5.47271472	      5.03929459	    -11.99480980	     -6.52650555	      9.11094753	     -1.63573616	     -0.48539640	     -4.67613141	    -13.34697705	    -16.05489321	     20.63921845	     -8.21260188	    -10.65296574	      3.99817990	     -8.91956865
      0.18000000	      4.01491713	     -3.18634371	      5.27601535	     -1.35854023	      0.95295111	     -0.65832448	     -5.47039072	      5.03872431	    -11.99439740	     -6.52253448	      9.11145841	     -1.63483215	     -0.48301266	     -4.67603833	    -13.34637974	    -16.05833345	     20.63940774	     -8.21269219	    -10.65298367	      3.99559249	     -8.92313587
